<svg width="48" height="49" viewBox="0 0 48 49" fill="none" xmlns="http://www.w3.org/2000/svg">
<g opacity="none">
<path d="M23.6014 24.5125L2.60136 16.3125C1.80136 15.9125 1.80136 14.9125 2.60136 14.5125L23.6014 6.31251C23.8014 6.31251 24.0014 6.31251 24.2014 6.31251L45.2014 14.5125C46.0014 14.9125 46.0014 16.1125 45.2014 16.3125L24.2014 24.5125C24.0014 24.5125 23.8014 24.5125 23.6014 24.5125Z" />
<path d="M37.0016 23.3125L23.4016 28.7125C23.2016 28.7125 23.0016 28.7125 22.8016 28.7125L9.00157 23.3125C8.40157 22.9125 7.80157 23.5125 7.80157 24.1125V34.1125C7.80157 34.5125 8.00157 34.9125 8.40157 34.9125L22.8016 40.5125C23.0016 40.5125 23.2016 40.5125 23.4016 40.5125L37.8016 34.9125C38.2016 34.7125 38.4016 34.5125 38.4016 34.1125V24.1125C38.4016 23.5125 37.6016 23.1125 37.0016 23.3125Z" />
</g>
</svg>
