<svg width="25" height="25" viewBox="0 0 25 25" fill="none" xmlns="http://www.w3.org/2000/svg">
<path d="M12.0015 4.85156C16.4015 4.85156 20.0015 8.45156 20.0015 12.8516C20.0015 17.2516 16.4015 20.8516 12.0015 20.8516C7.60146 20.8516 4.00146 17.2516 4.00146 12.8516C4.00146 8.45156 7.60146 4.85156 12.0015 4.85156ZM12.0015 2.85156C6.50146 2.85156 2.00146 7.35156 2.00146 12.8516C2.00146 18.3516 6.50146 22.8516 12.0015 22.8516C17.5015 22.8516 22.0015 18.3516 22.0015 12.8516C22.0015 7.35156 17.5015 2.85156 12.0015 2.85156Z" fill="black" fill-opacity="0.38"/>
<path d="M11.9015 19.5516C12.6194 19.5516 13.2015 18.9695 13.2015 18.2516C13.2015 17.5336 12.6194 16.9516 11.9015 16.9516C11.1835 16.9516 10.6015 17.5336 10.6015 18.2516C10.6015 18.9695 11.1835 19.5516 11.9015 19.5516Z" fill="black" fill-opacity="0.38"/>
<path d="M11.9015 6.15157C11.2015 6.15157 10.6015 6.35157 10.0015 6.65157L11.1015 9.05157C11.4015 8.95157 11.6015 8.85157 11.9015 8.85157C12.9015 8.85157 13.7015 9.65157 13.7015 10.6516C13.7015 11.6516 12.9015 12.4516 11.9015 12.4516V15.1516C14.4015 15.1516 16.4015 13.1516 16.4015 10.6516C16.4015 8.15157 14.4015 6.15157 11.9015 6.15157Z" fill="black" fill-opacity="0.38"/>
</svg>
